<?xml version="1.0" encoding="UTF-8"?>
<svg width="1094.3" height="279.4" version="1.1" viewBox="0 0 289.53 73.925" xmlns="http://www.w3.org/2000/svg" xmlns:cc="http://creativecommons.org/ns#" xmlns:rdf="http://www.w3.org/1999/02/22-rdf-syntax-ns#" xmlns:xlink="http://www.w3.org/1999/xlink">
 <defs>
  <filter id="filter1062" x="-7.676e-6" y="-9.7509e-6" width="1" height="1" color-interpolation-filters="sRGB">
   <feGaussianBlur stdDeviation="0.0005386602"/>
  </filter>
  <linearGradient id="linearGradient2463" x1="183.99" x2="123.89" y1="134.37" y2="33.493" gradientUnits="userSpaceOnUse">
   <stop stop-color="#003380" offset="0"/>
   <stop stop-color="#59f" offset="1"/>
  </linearGradient>
  <linearGradient id="linearGradient2479" x1="-52.32" x2="193.34" y1="-61.21" y2="139.93" gradientUnits="userSpaceOnUse">
   <stop stop-color="#59f" offset="0"/>
   <stop stop-color="#003380" offset="1"/>
  </linearGradient>
 </defs>
 <metadata>
  <rdf:RDF>
   <cc:Work rdf:about=""/>
  </rdf:RDF>
 </metadata>
 <g transform="translate(-4.6168 -67.295)">
  <path d="m280.52 111.78c-10.727 0.0531-14.795 8.068-14.833 14.92 0.184 11.998 9.9012 14.513 14.752 14.513 4.1549 0 7.5643-0.75988 9.9997-3.3275 1.4156-1.4726 1.2261-3.326 0.19958-4.4683-0.90543-0.91531-2.5696-1.0519-4.4511 0.38028-2.1978 1.6457-3.8481 1.814-5.7483 1.9462-5.0743 0.24236-7.9014-3.8231-8.2421-6.1168h18.281c2.9905-0.0623 3.4915-1.0706 3.6724-2.9268 0.0207-8.8988-5.3556-14.983-13.63-14.92zm-0.0809 5.5244c5.5962 0.0509 7.4334 4.0707 7.8068 7.3276h-16.12c0.60669-2.6449 1.8846-7.2342 8.3128-7.3276zm-21.556 3.8139c2.1075-0.99556 1.65-3.0518 1.65-3.0518-1.6461-4.3362-6.2426-6.3796-14.324-5.7857 0 0-9.5964 0.5668-10.707 8.4641-0.24656 4.409 3.1612 6.8275 6.2103 7.4237l9.1585 1.0298c4.0354 0.54777 4.0232 1.4018 4.1809 2.7827 0.0429 1.3724-1.6048 2.6171-1.6048 2.6171s-1.1222 0.99894-4.8071 1.1554c-0.81835 0.041-5.7053-0.22895-7.1065-2.6099-0.92799-2.5292-2.5695-2.6968-4.0053-2.495-2.1536 0.78742-2.4288 1.9956-2.2428 3.1391 0.42413 1.0705 1.1677 4.4452 4.5724 5.7163 1.3948 0.55523 5.3992 1.708 8.5596 1.708 4.3893 0 7.249-0.88714 9.4999-2.8491 1.0506-0.95996 3.0799-2.6984 3.5459-6.0905 0.13303-4.6977-3.4392-7.0284-5.2824-7.3771l-9.9032-1.4033c-2.8513-0.40451-4.4287-1.0546-4.4898-2.6435-0.0543-2.5574 3.9379-3.2465 5.7254-3.3048 0 0 4.071-0.29319 6.3142 1.5264l1.1124 1.4022s1.2695 1.852 3.9442 0.64585zm-41.854-9.2581c-13.064 0.0178-15.077 11.252-14.843 14.84 0.48011 11.108 8.7332 14.513 14.843 14.513 12.066 0 14.738-9.8795 14.771-14.513-0.0777-6.1852-3.346-14.771-14.771-14.84zm0 5.5267c5.8244 0.13425 8.2298 4.6048 8.294 9.313-0.18704 3.0896-1.4051 8.8176-8.294 8.9909-4.795-0.21863-8.1141-3.0862-8.2908-8.9909 0.0585-3.9286 1.657-9.0515 8.2908-9.313zm-32.987-5.5267c-13.064 0.0178-15.077 11.252-14.843 14.84 0.48011 11.108 8.7332 14.513 14.843 14.513 12.066 0 14.738-9.8794 14.771-14.513-0.0777-6.1852-3.346-14.771-14.771-14.84zm0 5.5267c5.8244 0.13426 8.2298 4.6048 8.294 9.3131-0.18704 3.0896-1.4051 8.8176-8.294 8.9909-4.795-0.21863-8.1141-3.0862-8.2908-8.9909 0.0585-3.9286 1.657-9.0516 8.2908-9.3131zm-48.965-10.014 0.0122 31.597c0.20707 1.7945 2.4464 2.2432 3.1392 2.2431 1.2326 1e-5 2.9817-0.64554 3.2216-2.2431v-13.204c-0.12878-2.3223 1.6545-7.7021 8.0563-8.3987 5.3885-0.51195 7.0654 3.9231 7.0654 8.7701v12.833c0.17169 1.3415 1.5733 2.2432 3.28 2.2431 1.8049 1e-5 2.8715-1.0738 3.045-2.2431v-13.674c0-8.5455-5.3015-13.448-11.478-13.448-2.5129-0.12529-6.5987 0.11433-9.969 3.0434v-7.5099c9e-3 -1.4831-1.4829-2.6579-3.1647-2.658-1.3534 2e-5 -3.2637 0.95297-3.2088 2.6495zm-11.222 6.5767c2.3517 2.0552 4.4072 0.6868 4.4072 0.6868s2.5286-1.7201 0.23052-4.5036c-2.4005-2.7165-6.2569-5.4094-14.013-5.4094-4.6649 0-17.92 3.2436-17.963 17.713 0.06477 12.749 9.081 18.776 17.498 18.776 1.9097 0 10.761 0 15.651-7.5059 0.67922-1.2727 0.62772-2.8288-0.49568-3.7224-1.4526-1.1927-3.4535-0.54114-4.3994 0.623-2.8406 3.0126-4.7282 4.5465-9.8885 4.9418-3.2993 0.20228-12.15-2.1154-11.954-12.688-0.0455-10.726 8.6738-12.438 11.695-12.443 5.129-0.0137 7.0953 1.3729 9.2311 3.5316zm76.103-43.888c-0.0137-1.7486 1.2078-2.7702 3.0483-2.7702 2.1238 0 3.1115 1.0437 3.2122 2.7868l-1e-5 4.323 4.3312-0.01216c3.9356-0.0046 4.3413 5.2191-8e-3 5.2866l-4.3238-0.0091v13.754c0.0152 5.0583 3.0745 4.7855 4.1458 4.1375 0 0 2.9337-1.9167 4.5147 0.69642 0.90577 1.5325-0.12878 2.9522-0.12878 2.9522-1.2578 1.698-3.2212 2.1252-5.8144 2.1252 0 0-9.3083 0.6553-8.9779-10.79v-12.875l-2.0013-0.02509c-4.4844-0.13395-3.9485-5.3712 0.1224-5.2409h1.879zm-9.9628 13.177c2.1075-0.99556 1.65-3.0518 1.65-3.0518-1.6461-4.3361-6.2426-6.3796-14.324-5.7857 0 0-9.5964 0.56679-10.707 8.4641-0.24656 4.409 3.1612 6.8275 6.2103 7.4237l9.1585 1.0298c4.0354 0.54776 4.0232 1.4018 4.1809 2.7827 0.0429 1.3724-1.6048 2.6171-1.6048 2.6171s-1.1222 0.99895-4.8071 1.1554c-0.81835 0.04105-5.7053-0.22896-7.1065-2.6099-0.92799-2.5292-2.5695-2.6968-4.0053-2.495-2.1536 0.78742-2.4288 1.9956-2.2428 3.1391 0.42412 1.0705 1.1677 4.4452 4.5724 5.7163 1.3948 0.55522 5.3992 1.708 8.5596 1.708 4.3893 0 7.249-0.88712 9.4999-2.8491 1.0506-0.95996 3.0799-2.6984 3.5459-6.0905 0.13304-4.6977-3.4392-7.0284-5.2824-7.3771l-9.9032-1.4033c-2.8513-0.40448-4.4287-1.0546-4.4898-2.6435-0.0543-2.5574 3.9379-3.2464 5.7254-3.3048 0 0 4.0709-0.29317 6.3142 1.5263l1.1124 1.4022s1.2695 1.852 3.9442 0.64584zm-54.068-8.8375c-2.5354 0-3.2184 1.852-3.2171 2.9465v12.871c0 13.114 11.045 13.114 11.045 13.114 6.7267 0.6553 10.445-3.7528 10.445-3.7528v1.0944c0.11343 1.6752 1.4019 2.6584 3.2046 2.6584 2.0286 0 3.0871-1.3189 3.1214-2.6544v-23.594c1e-3 -1.3673-1.2778-2.6827-3.1851-2.6827-2.2514 0-3.0942 1.4754-3.1225 2.7008v10.769s0.1487 9.274-8.6672 9.8307c-6.8848 0.04394-6.5114-7.5954-6.5114-7.5954v-13.005c0.0562-0.8327-0.76015-2.7008-3.1127-2.7008zm-17.105 16.247c-0.69542 8.4969-14.812 10.307-15.91 0.32474-0.30451-2.738-3.0899-2.8089-3.0899-2.8089s-2.521-0.06979-3.2898 2.6706c-0.14688 16.061 27.754 17.137 28.45-0.23716v-20.658c0.0106-1.6706-1.7859-2.6484-3.1265-2.6496-1.199 0.0012-3.0169 0.97781-3.0343 2.6471 4e-4 6.9038 2.1e-4 13.808 2.1e-4 20.711z" fill="#2951a9"/>
  <path transform="matrix(.40228 0 0 .40228 4.6169 67.295)" d="m159.71 61.346c14.303-7.4431 6.9238-21.212 6.9238-21.212-29.336-42.614-74.267-40.1-74.267-40.1-126.04 5.6021-119.97 182.41-0.81631 183.71 0 0 40.548 2.0566 70.499-33.943 0 0 15.834-17.764-3.0445-27.381-19.463-6.3493-22.327 35.126-67.16 34.014-92.158-1.0666-80.986-130.82-1.6304-128.64 53.054 2.9269 44.28 38.707 69.495 33.556z" fill="url(#linearGradient2479)" filter="url(#filter1062)"/>
  <path transform="matrix(.40228 0 0 .40228 4.6169 67.295)" d="m201.59 5.0834-97.12 97.12s-8.3851 8.4012-16.504 0c0 0-3.4968-4.1599-2.3093-13.292 3.799-17.472-7.661-21.17-7.661-21.17-12.514-3.4405-18.641 11.426-18.641 11.426-10.379 30.947 14.696 48.135 14.696 48.135s24.37 20.391 57.947-13.52l89.171-89.12s9.1978-8.7954 0-19.521c-9.7327-9.7327-19.578-0.057071-19.578-0.057071z" fill="url(#linearGradient2463)" filter="url(#filter1062)"/>
 </g>
</svg>
